<svg xmlns="http://www.w3.org/2000/svg" viewBox="0 0 94.931 115.475" x="0px" y="0px"><g><path d="M41.724,42.407a2.674,2.674,0,0,0-.28.08c-.09.039-.17.09-.26.139a2.113,2.113,0,0,0-.22.19,1.518,1.518,0,0,0-.44,1.06,1.456,1.456,0,0,0,.44,1.06,1.5,1.5,0,0,0,1.06.44,1.516,1.516,0,0,0,1.06-.44,1.5,1.5,0,0,0,.44-1.06,1.5,1.5,0,0,0-1.8-1.469Z"/><path d="M46.994,50.306a1.538,1.538,0,0,0,1.06-.439,1.5,1.5,0,0,0,0-2.12,2.118,2.118,0,0,0-.23-.191,1.917,1.917,0,0,0-.54-.22,1.489,1.489,0,0,0-1.35.411,1.514,1.514,0,0,0-.44,1.059,1.46,1.46,0,0,0,.44,1.061A1.5,1.5,0,0,0,46.994,50.306Z"/><path d="M36.9,45.6l-.086.067a4.085,4.085,0,0,0-.426.365,5.978,5.978,0,0,0,4.243,10.188h.022a5.946,5.946,0,0,0,4.223-1.768,4.315,4.315,0,0,0,.353-.42l.069-.09a1.478,1.478,0,0,0-.116-1.969l-6.317-6.269A1.479,1.479,0,0,0,36.9,45.6Zm3.743,7.664a2.855,2.855,0,0,1-2.141-.877,3.029,3.029,0,0,1-.591-3.466l4.062,4.032A3.006,3.006,0,0,1,40.644,53.268Z"/><path d="M90.684,10.748l.442-.482C92.084,9.221,93,8.225,93.9,7.278a3.576,3.576,0,0,0,.112-4.9,3.569,3.569,0,0,0-4.857-.563c-1.349.972-2.771,2.027-4.251,3.155L82.422,2.486a8.507,8.507,0,0,0-12.02,0L57.674,15.214a8.5,8.5,0,0,0,0,12.021l.225.225c-.768.672-1.39,1.213-1.922,1.675-.778.675-1.4,1.22-2.135,1.871l-1.42-1.52a8.507,8.507,0,0,0-12.02,0L27.674,42.214a8.5,8.5,0,0,0,0,12.021l.79.79c-1.864,1.806-3.115,3.075-4.426,4.406-.465.471-.932.945-1.434,1.451-.736-7.033-.92-16.184-.966-20.159A3.1,3.1,0,0,0,20.32,38.2a3.151,3.151,0,0,0-4.871,1.76c-2.024,7.45-1.431,22.287-1.026,29.012C8.35,75,3.645,79.771,1.35,82.109a4.761,4.761,0,0,0,.036,6.68l2.2,2.2A4.694,4.694,0,0,0,6.938,92.38h.134a4.788,4.788,0,0,0,3.421-1.587c4.89-5.456,13.6-14.364,26.575-27.183a8.492,8.492,0,0,0,11.819-.182L61.614,50.7a8.494,8.494,0,0,0,.522-11.445l.35-.318c1.081-.979,2.12-1.923,3.566-3.323l.814.814a8.509,8.509,0,0,0,12.021,0L91.614,23.7a8.5,8.5,0,0,0,0-12.021Zm.2-6.534a.609.609,0,0,1,.9.106.616.616,0,0,1-.018.915c-.921.962-1.847,1.973-2.82,3.034-1.2,1.309-2.439,2.658-3.816,4.084l-2.146-2.146C85.809,7.977,88.469,5.955,90.886,4.214ZM8.292,88.82a1.8,1.8,0,0,1-1.3.6A1.694,1.694,0,0,1,5.679,88.9l-2.2-2.2a1.8,1.8,0,0,1-.017-2.52C5.808,81.787,10.689,76.84,16.98,70.6a1.48,1.48,0,0,0,.434-1.142c-.392-6.209-1.091-21.439.887-28.721a.217.217,0,0,1,.132-.153.186.186,0,0,1,.173.025.173.173,0,0,1,.077.147c.053,4.623.292,16.167,1.361,23.514a1.478,1.478,0,0,0,2.5.842c1.456-1.43,2.539-2.53,3.6-3.608,1.306-1.325,2.552-2.59,4.411-4.39l4.414,4.414C21.793,74.544,13.289,83.243,8.292,88.82ZM61.1,44.689a5.443,5.443,0,0,1-.678,2.6c-1.092,1.023-3.37.976-5.882-1.535l-9.193-9.193a1.5,1.5,0,1,0-2.121,2.121l9.192,9.193a10.023,10.023,0,0,0,4.884,2.894L46.766,61.306a5.506,5.506,0,0,1-7.779,0l-.609-.609a.859.859,0,0,0-.476-.476L29.8,52.114a5.5,5.5,0,0,1,0-7.779L42.523,31.607a5.5,5.5,0,0,1,7.742-.037l1.351,1.447c-.436.4-.907.83-1.464,1.344a1.494,1.494,0,0,0-2.068,2.156l8,8a1.5,1.5,0,0,0,2.121,0,1.479,1.479,0,0,0,.222-1.786c.545-.529,1.035-1,1.484-1.423A5.44,5.44,0,0,1,61.1,44.689Zm-.6-7.943c-1.154,1.045-2.344,2.125-4.108,3.839l-4.141-4.14c3.018-2.782,3.969-3.609,5.662-5.078.569-.5,1.233-1.072,2.079-1.812l3.968,3.968C62.565,34.874,61.553,35.793,60.5,36.746Zm16.264-2.44a5.506,5.506,0,0,1-7.779,0L67.378,32.7a.86.86,0,0,0-.476-.476L61.379,26.7a1.419,1.419,0,0,0-.125-.217,1.466,1.466,0,0,0-.386-.293L59.8,25.114a5.5,5.5,0,0,1,0-7.779L72.523,4.607a5.505,5.505,0,0,1,7.778,0l2.21,2.21c-.534.417-1.083.853-1.63,1.286l-.692-.691A1.477,1.477,0,0,0,78.1,9.5l8,8a1.477,1.477,0,1,0,2.09-2.089l-.968-.969c.49-.507.966-1.006,1.423-1.493l.849.849a5.427,5.427,0,0,1,.933,6.486c-1.091,1.022-3.37.977-5.882-1.535L75.351,9.557a1.5,1.5,0,0,0-2.121,2.121l9.192,9.193a10.023,10.023,0,0,0,4.884,2.894Z"/><path d="M70.964,17.936a1.5,1.5,0,0,0,1.06.44,1.562,1.562,0,0,0,.57-.11,1.609,1.609,0,0,0,.49-.33,1.349,1.349,0,0,0,.32-.489,1.393,1.393,0,0,0,.12-.571,1.358,1.358,0,0,0-.03-.29,1.327,1.327,0,0,0-.09-.28,1.729,1.729,0,0,0-.32-.49,1.548,1.548,0,0,0-2.12,0,1.365,1.365,0,0,0-.19.23,2.148,2.148,0,0,0-.14.26,1.306,1.306,0,0,0-.08.28,1.358,1.358,0,0,0-.03.29,1.568,1.568,0,0,0,.11.571A1.518,1.518,0,0,0,70.964,17.936Z"/><path d="M77.824,20.556a1.316,1.316,0,0,0-.26-.13,1.518,1.518,0,0,0-.28-.09,1.465,1.465,0,0,0-.59,0,1.518,1.518,0,0,0-.28.09,1.316,1.316,0,0,0-.26.13,2.118,2.118,0,0,0-.23.191,1.548,1.548,0,0,0-.43,1.059,1.455,1.455,0,0,0,.11.58,1.568,1.568,0,0,0,.32.481,1.543,1.543,0,0,0,1.07.439,1.625,1.625,0,0,0,.57-.109,1.783,1.783,0,0,0,.49-.33,1.408,1.408,0,0,0,.32-.481,1.466,1.466,0,0,0,.12-.58,1.514,1.514,0,0,0-.44-1.059A2.118,2.118,0,0,0,77.824,20.556Z"/><path d="M73.194,24.628a3.024,3.024,0,0,1-3.954-3.923,1.478,1.478,0,1,0-2.743-1.1,5.977,5.977,0,0,0,7.819,7.758,1.478,1.478,0,0,0-1.122-2.735Z"/></g></svg>